<svg xmlns="http://www.w3.org/2000/svg" width="80.457" height="104.518" viewBox="0 0 80.457 104.518">
  <g id="avatar_1_" data-name="avatar (1)" transform="translate(-35.967 1.1)">
    <g id="Group_206" data-name="Group 206" transform="translate(36.073 -1)">
      <path id="Path_773" data-name="Path 773" d="M156.285,53.041h.6a16.656,16.656,0,0,0,13.193-6.217c7.2-8.847,6.007-24.013,5.876-25.461C175.484,10.5,170.768,5.3,166.876,2.874A19.5,19.5,0,0,0,156.808,0h-.318a19.471,19.471,0,0,0-10.067,2.793c-3.93,2.426-8.72,7.624-9.188,18.571-.131,1.447-1.328,16.614,5.876,25.461A16.592,16.592,0,0,0,156.285,53.041ZM142.231,21.873c0-.061.019-.122.019-.163.618-14.616,10.142-16.185,14.222-16.185h.225c5.052.122,13.642,2.365,14.222,16.185a.431.431,0,0,0,.019.163c.019.143,1.329,14-4.622,21.3a11.806,11.806,0,0,1-9.637,4.362h-.187a11.77,11.77,0,0,1-9.618-4.362C140.94,35.918,142.212,22,142.231,21.873Z" transform="translate(-116.491)" fill="#fff" stroke="#fff" stroke-width="0.2"/>
      <path id="Path_774" data-name="Path 774" d="M116.312,284.594v-.061c0-.163-.02-.326-.02-.509-.117-4.037-.371-13.475-8.85-16.491-.059-.021-.137-.041-.2-.061a55.4,55.4,0,0,1-16.215-7.705,2.565,2.565,0,0,0-3.673.673A2.826,2.826,0,0,0,88,264.271a59.814,59.814,0,0,0,17.836,8.5c4.552,1.692,5.06,6.768,5.2,11.415a4.264,4.264,0,0,0,.02.51,38.585,38.585,0,0,1-.41,6.3c-3.165,1.875-15.57,8.358-34.442,8.358-18.794,0-31.277-6.5-34.461-8.378a36.521,36.521,0,0,1-.41-6.3c0-.163.02-.326.02-.51.137-4.648.645-9.723,5.2-11.416a60.344,60.344,0,0,0,17.836-8.5,2.825,2.825,0,0,0,.645-3.832,2.566,2.566,0,0,0-3.673-.673,54.788,54.788,0,0,1-16.215,7.706c-.078.02-.137.041-.2.061-8.479,3.038-8.733,12.476-8.85,16.491a4.28,4.28,0,0,1-.02.51v.061c-.02,1.06-.039,6.5,1,9.234a2.594,2.594,0,0,0,1.016,1.284c.586.408,14.632,9.744,38.134,9.744s37.548-9.357,38.134-9.744a2.706,2.706,0,0,0,1.016-1.284C116.352,291.1,116.332,285.654,116.312,284.594Z" transform="translate(-36.073 -200.517)" fill="#fff" stroke="#fff" stroke-width="0.2"/>
    </g>
  </g>
</svg>
