<svg id="calendar_1_" xmlns="http://www.w3.org/2000/svg" width="80.61" height="80.61" viewBox="0 0 80.61 80.61">
  <path id="Path_775" data-name="Path 775" d="M73.894,7.557H62.977V2.519a2.519,2.519,0,0,0-5.038,0V7.557H42.824V2.519a2.519,2.519,0,0,0-5.038,0V7.557H22.672V2.519a2.519,2.519,0,0,0-5.038,0V7.557H6.718A6.716,6.716,0,0,0,0,14.273V73.892A6.718,6.718,0,0,0,6.718,80.61H73.894a6.716,6.716,0,0,0,6.716-6.718V14.273A6.714,6.714,0,0,0,73.894,7.557Zm1.678,66.334a1.681,1.681,0,0,1-1.678,1.68H6.718a1.681,1.681,0,0,1-1.68-1.68V14.273A1.681,1.681,0,0,1,6.718,12.6H17.633v5.038a2.519,2.519,0,1,0,5.038,0V12.6H37.786v5.038a2.519,2.519,0,0,0,5.038,0V12.6H57.938v5.038a2.519,2.519,0,0,0,5.038,0V12.6H73.894a1.68,1.68,0,0,1,1.678,1.678Z" fill="#fff"/>
  <rect id="Rectangle_256" data-name="Rectangle 256" width="6.717" height="6.717" transform="translate(23.511 30.229)" fill="#fff"/>
  <rect id="Rectangle_257" data-name="Rectangle 257" width="6.717" height="6.717" transform="translate(23.511 43.664)" fill="#fff"/>
  <rect id="Rectangle_258" data-name="Rectangle 258" width="6.717" height="6.717" transform="translate(23.511 57.099)" fill="#fff"/>
  <rect id="Rectangle_259" data-name="Rectangle 259" width="6.717" height="6.717" transform="translate(36.946 57.099)" fill="#fff"/>
  <rect id="Rectangle_260" data-name="Rectangle 260" width="6.717" height="6.717" transform="translate(36.946 43.664)" fill="#fff"/>
  <rect id="Rectangle_261" data-name="Rectangle 261" width="6.717" height="6.717" transform="translate(36.946 30.229)" fill="#fff"/>
  <rect id="Rectangle_262" data-name="Rectangle 262" width="6.717" height="6.717" transform="translate(50.381 57.099)" fill="#fff"/>
  <rect id="Rectangle_263" data-name="Rectangle 263" width="6.717" height="6.717" transform="translate(50.381 43.664)" fill="#fff"/>
  <rect id="Rectangle_264" data-name="Rectangle 264" width="6.717" height="6.717" transform="translate(50.381 30.229)" fill="#fff"/>
</svg>
