<svg id="clock-circular-outline_1_" data-name="clock-circular-outline (1)" xmlns="http://www.w3.org/2000/svg" width="51.07" height="51.07" viewBox="0 0 51.07 51.07">
  <g id="Group_201" data-name="Group 201">
    <path id="Path_771" data-name="Path 771" d="M25.535,0A25.535,25.535,0,1,0,51.07,25.535,25.564,25.564,0,0,0,25.535,0Zm0,45.636a20.1,20.1,0,1,1,20.1-20.1A20.125,20.125,0,0,1,25.535,45.636Z" fill="#4d4d4d"/>
    <path id="Path_772" data-name="Path 772" d="M60.953,33.953H48.594V19.094a2.264,2.264,0,1,0-4.528,0V36.217a2.264,2.264,0,0,0,2.264,2.264H60.953a2.264,2.264,0,1,0,0-4.528Z" transform="translate(-21.856 -8.426)" fill="#4d4d4d"/>
  </g>
</svg>
