<svg xmlns="http://www.w3.org/2000/svg" width="83.962" height="73.467" viewBox="0 0 83.962 73.467">
  <g id="comment-white-oval-bubble" transform="translate(0 -36.549)">
    <path id="Path_776" data-name="Path 776" d="M78.339,51.783A38.011,38.011,0,0,0,63.066,40.638a53.49,53.49,0,0,0-21.084-4.089A53.491,53.491,0,0,0,20.9,40.638,38.006,38.006,0,0,0,5.623,51.783,24.151,24.151,0,0,0,0,67.16,23.54,23.54,0,0,0,4.24,80.6a34.647,34.647,0,0,0,11.6,10.523,30.975,30.975,0,0,1-1.219,3.635q-.7,1.722-1.265,2.822a19.482,19.482,0,0,1-1.523,2.438q-.96,1.34-1.452,1.89t-1.617,1.817q-1.124,1.267-1.452,1.651a3.341,3.341,0,0,0-.375.431l-.328.405-.281.431c-.156.238-.227.39-.211.453a1.294,1.294,0,0,1-.094.478.642.642,0,0,0,.023.574v.048a2.449,2.449,0,0,0,.749,1.315,1.855,1.855,0,0,0,1.265.5h.235a34.7,34.7,0,0,0,5.341-1.052A50.863,50.863,0,0,0,35.187,97.388a62.769,62.769,0,0,0,6.793.383,53.478,53.478,0,0,0,21.084-4.09A38.012,38.012,0,0,0,78.339,82.537a23.839,23.839,0,0,0,0-30.754ZM73.068,79.357a33.619,33.619,0,0,1-13.214,8.968A47.728,47.728,0,0,1,41.98,91.649a51.836,51.836,0,0,1-6.091-.383l-2.671-.286L31.2,92.8a46.06,46.06,0,0,1-12.885,8.179,34.726,34.726,0,0,0,3.28-8.226l1.265-4.592-4.076-2.391a28.766,28.766,0,0,1-9.441-8.4A17.7,17.7,0,0,1,6,67.161a18.278,18.278,0,0,1,4.9-12.2A33.616,33.616,0,0,1,24.106,46a47.708,47.708,0,0,1,17.875-3.325A47.707,47.707,0,0,1,59.855,46a33.625,33.625,0,0,1,13.214,8.968,17.641,17.641,0,0,1,0,24.394Z" transform="translate(0 0)" fill="#570000"/>
  </g>
</svg>
