<svg xmlns="http://www.w3.org/2000/svg" width="11" height="21" viewBox="0 0 11 21">
  <path id="Path_764" data-name="Path 764" d="M32.663,0,30.024,0c-2.964,0-4.88,2.028-4.88,5.168V7.551H22.492a.422.422,0,0,0-.415.428v3.452a.422.422,0,0,0,.415.428h2.653v8.712A.422.422,0,0,0,25.56,21h3.461a.422.422,0,0,0,.415-.428V11.86h3.1a.422.422,0,0,0,.415-.428V7.979a.436.436,0,0,0-.121-.3.408.408,0,0,0-.294-.126h-3.1V5.531c0-.971.224-1.464,1.449-1.464h1.777a.422.422,0,0,0,.415-.428V.433A.422.422,0,0,0,32.663,0Z" transform="translate(-22.077)" fill="#fff"/>
</svg>
