<svg xmlns="http://www.w3.org/2000/svg" width="28" height="17" viewBox="0 0 28 17">
  <g id="Group_440" data-name="Group 440" transform="translate(0 -96)">
    <path id="Path_765" data-name="Path 765" d="M357.281,163.521V160h-1.76v3.521H352v1.76h3.521V168.8h1.76v-3.521H360.8v-1.76Z" transform="translate(-332.802 -60.721)" fill="#fff"/>
    <g id="Group_166" data-name="Group 166" transform="translate(0 96)">
      <g id="Group_165" data-name="Group 165" transform="translate(0 0)">
        <path id="Path_766" data-name="Path 766" d="M8.8,102.8v3.4h4.98a5.282,5.282,0,0,1-4.98,3.4,5.1,5.1,0,1,1,0-10.2,5.312,5.312,0,0,1,3.42,1.231l2.313-2.564A8.906,8.906,0,0,0,8.8,96a8.505,8.505,0,1,0,0,17,8.665,8.665,0,0,0,8.8-8.5v-1.7Z" transform="translate(0 -96)" fill="#fff"/>
      </g>
    </g>
  </g>
</svg>
