<svg id="instagram-logo_1_" data-name="instagram-logo (1)" xmlns="http://www.w3.org/2000/svg" width="22" height="22" viewBox="0 0 22 22">
  <path id="Path_767" data-name="Path 767" d="M15.929,0H6.071A6.078,6.078,0,0,0,0,6.071v9.858A6.078,6.078,0,0,0,6.071,22h9.858A6.078,6.078,0,0,0,22,15.929V6.071A6.078,6.078,0,0,0,15.929,0Zm4.12,15.929a4.124,4.124,0,0,1-4.119,4.119H6.071a4.124,4.124,0,0,1-4.119-4.119V6.071A4.124,4.124,0,0,1,6.071,1.952h9.858a4.124,4.124,0,0,1,4.119,4.119v9.858Z" fill="#fff"/>
  <path id="Path_768" data-name="Path 768" d="M46.569,40.97a5.6,5.6,0,1,0,5.6,5.6A5.607,5.607,0,0,0,46.569,40.97Zm0,9.273a3.672,3.672,0,1,1,3.673-3.672A3.677,3.677,0,0,1,46.569,50.243Z" transform="translate(-35.569 -35.571)" fill="#fff"/>
  <path id="Path_769" data-name="Path 769" d="M120.371,28.251a1.449,1.449,0,1,0,1.025.424A1.455,1.455,0,0,0,120.371,28.251Z" transform="translate(-103.475 -24.582)" fill="#fff"/>
</svg>
