<svg xmlns="http://www.w3.org/2000/svg" width="46.177" height="64.568" viewBox="0 0 46.177 64.568">
  <g id="Group_442" data-name="Group 442" transform="translate(-776.9 -3096.9)">
    <g id="Group_161" data-name="Group 161" transform="translate(788.202 3108.059)">
      <g id="Group_160" data-name="Group 160">
        <path id="Path_761" data-name="Path 761" d="M177.786,90a11.786,11.786,0,1,0,11.786,11.786A11.8,11.8,0,0,0,177.786,90Zm0,19.67a7.884,7.884,0,1,1,7.871-7.884A7.89,7.89,0,0,1,177.786,109.67Z" transform="translate(-166 -90)" fill="#4d4d4d" stroke="#4d4d4d" stroke-width="0.2"/>
      </g>
    </g>
    <g id="Group_159" data-name="Group 159" transform="translate(777 3097)">
      <g id="Group_158" data-name="Group 158" transform="translate(0)">
        <path id="Path_760" data-name="Path 760" d="M98.989,0A22.837,22.837,0,0,0,76,22.629a22.321,22.321,0,0,0,3.431,11.9L97.68,63.476a1.923,1.923,0,0,0,1.628.891h.015a1.921,1.921,0,0,0,1.628-.917l17.783-29.228a22.335,22.335,0,0,0,3.243-11.594A22.837,22.837,0,0,0,98.989,0Zm16.458,32.287L99.279,58.86,82.688,32.542a18.618,18.618,0,0,1-2.882-9.912,19.179,19.179,0,0,1,38.353,0A18.619,18.619,0,0,1,115.447,32.287Z" transform="translate(-76 0)" fill="#4d4d4d" stroke="#4d4d4d" stroke-width="0.2"/>
      </g>
    </g>
  </g>
</svg>
