<svg xmlns="http://www.w3.org/2000/svg" width="18" height="22" viewBox="0 0 18 22">
  <g id="XMLID_798_" transform="translate(-33.181)">
    <path id="XMLID_799_" d="M48.847,2.254A8.986,8.986,0,0,0,42.7,0a9.861,9.861,0,0,0-7.122,2.638,7.647,7.647,0,0,0-2.4,5.4c0,2.449,1.066,4.329,2.852,5.028a.978.978,0,0,0,.359.071.791.791,0,0,0,.779-.617c.06-.218.2-.755.261-.989a.9.9,0,0,0-.259-1,3.118,3.118,0,0,1-.757-2.185A5.615,5.615,0,0,1,42.351,2.81c3.059,0,4.959,1.67,4.959,4.359a8.769,8.769,0,0,1-1.071,4.424,3.164,3.164,0,0,1-2.621,1.761,1.767,1.767,0,0,1-1.382-.607,1.48,1.48,0,0,1-.278-1.326c.136-.554.322-1.133.5-1.692A10.119,10.119,0,0,0,43.1,6.974a2.036,2.036,0,0,0-2.1-2.2c-1.593,0-2.841,1.554-2.841,3.539a5.084,5.084,0,0,0,.391,1.981c-.2.817-1.393,5.673-1.62,6.589-.131.535-.919,4.757.386,5.094,1.466.378,2.776-3.734,2.909-4.2.108-.378.486-1.807.718-2.685a4.533,4.533,0,0,0,2.955,1.1,6.686,6.686,0,0,0,5.291-2.543A9.935,9.935,0,0,0,51.181,7.4,7.068,7.068,0,0,0,48.847,2.254Z" transform="translate(0 0)" fill="#fff"/>
  </g>
</svg>
