<svg xmlns="http://www.w3.org/2000/svg" width="23" height="19" viewBox="0 0 23 19">
  <g id="twitter_2_" data-name="twitter (2)" transform="translate(0 -48)">
    <g id="Group_167" data-name="Group 167" transform="translate(0 48)">
      <path id="Path_770" data-name="Path 770" d="M23,50.249a9.7,9.7,0,0,1-2.717.757,4.754,4.754,0,0,0,2.074-2.65,9.33,9.33,0,0,1-2.99,1.16A4.689,4.689,0,0,0,15.923,48a4.754,4.754,0,0,0-4.712,4.8,5.016,5.016,0,0,0,.109,1.093A13.275,13.275,0,0,1,1.6,48.874,4.888,4.888,0,0,0,.956,51.3,4.822,4.822,0,0,0,3.05,55.281a4.6,4.6,0,0,1-2.13-.59v.053A4.8,4.8,0,0,0,4.7,59.454a4.633,4.633,0,0,1-1.236.158,4.1,4.1,0,0,1-.893-.082,4.771,4.771,0,0,0,4.406,3.34,9.376,9.376,0,0,1-5.846,2.045A8.689,8.689,0,0,1,0,64.849,13.117,13.117,0,0,0,7.233,67c8.677,0,13.421-7.308,13.421-13.642,0-.212-.007-.417-.017-.62A9.495,9.495,0,0,0,23,50.249Z" transform="translate(0 -48)" fill="#fff"/>
    </g>
  </g>
</svg>
