<svg xmlns="http://www.w3.org/2000/svg" width="22" height="19" viewBox="0 0 22 19">
  <g id="vimeo-logo" transform="translate(0 -28.674)">
    <path id="Vimeo" d="M18.784,28.678q-4.588-.149-6.212,5.131a4.276,4.276,0,0,1,1.629-.345q1.673,0,1.477,1.874A8.511,8.511,0,0,1,14.2,38.644q-1.384,2.173-2.07,2.172-.892,0-1.629-3.355-.249-.988-.886-5.034-.6-3.75-3.157-3.5-1.084.1-3.251,1.974Q1.627,32.329,0,33.76l1.034,1.331A6.84,6.84,0,0,1,2.76,34.056q1.136,0,2.122,3.55.885,3.26,1.777,6.515c.883,2.368,1.971,3.553,3.251,3.553q3.105,0,7.594-5.822,4.338-5.574,4.485-8.784Q22.188,28.777,18.784,28.678Z" transform="translate(0 0)" fill="#fff"/>
  </g>
</svg>
