<svg xmlns="http://www.w3.org/2000/svg" width="21" height="25" viewBox="0 0 21 25">
  <g id="youtube-logo" transform="translate(-7.5)">
    <path id="YouTube" d="M25.263,18.287H23.88l.006-.8a.65.65,0,0,1,.651-.644h.088a.65.65,0,0,1,.653.644Zm-5.187-1.708a.59.59,0,0,0-.638.52v3.876a.652.652,0,0,0,1.277,0V17.1A.59.59,0,0,0,20.076,16.579ZM28.5,14.411v7.373A3.341,3.341,0,0,1,25.064,25H10.936A3.341,3.341,0,0,1,7.5,21.784V14.411a3.341,3.341,0,0,1,3.436-3.216H25.064A3.341,3.341,0,0,1,28.5,14.411ZM11.878,22.585V14.818h1.751V13.668L8.96,13.661v1.131l1.457,0v7.789Zm5.25-6.61h-1.46v4.148a7.293,7.293,0,0,1,0,1.006c-.119.322-.652.663-.86.035a8.189,8.189,0,0,1,0-1.012l-.006-4.176H13.343l0,4.111c0,.63-.014,1.1.005,1.314.036.377.023.816.375,1.068a1.771,1.771,0,0,0,2.231-.741l0,.856h1.173V15.975ZM21.8,20.724l0-3.452c0-1.316-.993-2.1-2.34-1.039l.006-2.566-1.459,0L18,22.528l1.2-.017.109-.552C20.838,23.353,21.8,22.4,21.8,20.724Zm4.57-.458-1.095.006c0,.043,0,.093,0,.147v.606a.6.6,0,0,1-.6.589h-.214a.6.6,0,0,1-.6-.589V19.431h2.507V18.5a14.653,14.653,0,0,0-.075-1.759c-.179-1.237-1.93-1.434-2.814-.8a1.637,1.637,0,0,0-.613.818,4.571,4.571,0,0,0-.186,1.459v2.058C22.68,23.693,26.869,23.21,26.369,20.267ZM20.753,9.092a.988.988,0,0,0,.351.44,1.023,1.023,0,0,0,.6.164.934.934,0,0,0,.559-.173,1.333,1.333,0,0,0,.41-.52l-.028.568h1.628V2.706H22.99V8.05a.534.534,0,0,1-1.067,0V2.706H20.585V7.337c0,.59.011.983.029,1.183A1.978,1.978,0,0,0,20.753,9.092ZM15.821,5.214a5.671,5.671,0,0,1,.165-1.545,1.665,1.665,0,0,1,1.7-1.229,2.032,2.032,0,0,1,.969.217,1.609,1.609,0,0,1,.624.563,2.213,2.213,0,0,1,.3.715,5.658,5.658,0,0,1,.081,1.124V6.8a9.328,9.328,0,0,1-.076,1.4,2.213,2.213,0,0,1-.321.834,1.517,1.517,0,0,1-.626.571,2.012,2.012,0,0,1-.883.184,2.47,2.47,0,0,1-.941-.157,1.29,1.29,0,0,1-.6-.476,2.1,2.1,0,0,1-.306-.77,7.362,7.362,0,0,1-.09-1.354V5.214ZM17.1,7.942a.649.649,0,1,0,1.293,0V4.286a.649.649,0,1,0-1.293,0Zm-4.5,1.846h1.536l0-5.267L15.943.009H14.263L13.3,3.36,12.32,0H10.658l1.93,4.523Z" fill="#fff"/>
  </g>
</svg>
